<svg width="13" height="13" viewBox="0 0 13 13" fill="none" xmlns="http://www.w3.org/2000/svg">
<path d="M11.8115 11.0166L11.9326 11.6777H13V13H2.79102V11.6777H3.8584L3.97949 11.0166H11.8115ZM8.625 6.54492C9.42625 5.62262 10.9005 6.04954 11.124 7.26855L11.6904 10.3555H4.10059L4.66699 7.26855C4.89056 6.04954 6.36479 5.62262 7.16602 6.54492C7.55603 6.99345 8.23498 6.99345 8.625 6.54492ZM7.51367 2.99805L10.6865 2.17676L9.90918 5.39648C9.28891 5.32967 8.6351 5.54573 8.15137 6.10254C8.01477 6.25979 7.77624 6.25979 7.63965 6.10254C6.48539 4.77399 4.36225 5.38858 4.04004 7.14453L3.69336 9.03418H1.65527L0 2.17676L3.17285 2.99805L5.34375 0L7.51367 2.99805Z" fill="#0C2464"/>
<path d="M11.8115 11.0166L11.9326 11.6777H13V13H2.79102V11.6777H3.8584L3.97949 11.0166H11.8115ZM8.625 6.54492C9.42625 5.62262 10.9005 6.04954 11.124 7.26855L11.6904 10.3555H4.10059L4.66699 7.26855C4.89056 6.04954 6.36479 5.62262 7.16602 6.54492C7.55603 6.99345 8.23498 6.99345 8.625 6.54492ZM7.51367 2.99805L10.6865 2.17676L9.90918 5.39648C9.28891 5.32967 8.6351 5.54573 8.15137 6.10254C8.01477 6.25979 7.77624 6.25979 7.63965 6.10254C6.48539 4.77399 4.36225 5.38858 4.04004 7.14453L3.69336 9.03418H1.65527L0 2.17676L3.17285 2.99805L5.34375 0L7.51367 2.99805Z" stroke="#0C2464"/>
</svg>
