<svg width="43" height="43" viewBox="0 0 43 43" fill="none" xmlns="http://www.w3.org/2000/svg">
<path d="M21.4989 36.0232L11.077 42.5968C10.6166 42.9035 10.1353 43.035 9.63304 42.9912C9.13078 42.9474 8.6913 42.7721 8.3146 42.4653C7.93791 42.1585 7.64492 41.7755 7.43565 41.3163C7.22637 40.857 7.18452 40.3416 7.31008 39.7701L10.0725 27.3461L0.843485 18.9976C0.424935 18.6032 0.16376 18.1536 0.0599593 17.6487C-0.0438411 17.1439 -0.0128686 16.6513 0.152877 16.171C0.318623 15.6907 0.569753 15.2963 0.906267 14.9878C1.24278 14.6792 1.70319 14.482 2.28748 14.3961L14.4673 13.2786L19.176 1.57766C19.3853 1.05177 19.71 0.657357 20.1504 0.394414C20.5907 0.131471 21.0402 0 21.4989 0C21.9577 0 22.4072 0.131471 22.8475 0.394414C23.2878 0.657357 23.6126 1.05177 23.8219 1.57766L28.5306 13.2786L40.7104 14.3961C41.2963 14.4838 41.7568 14.681 42.0916 14.9878C42.4264 15.2945 42.6776 15.6889 42.845 16.171C43.0124 16.6531 43.0442 17.1465 42.9404 17.6514C42.8366 18.1562 42.5746 18.605 42.1544 18.9976L32.9253 27.3461L35.6878 39.7701C35.8133 40.3399 35.7715 40.8552 35.5622 41.3163C35.3529 41.7773 35.06 42.1603 34.6833 42.4653C34.3066 42.7703 33.8671 42.9456 33.3648 42.9912C32.8626 43.0368 32.3812 42.9053 31.9208 42.5968L21.4989 36.0232Z" fill="#FFCD29"/>
</svg>
